<?xml version="1.0" encoding="utf-8"?>
<!-- Generator: Adobe Illustrator 14.0.0, SVG Export Plug-In . SVG Version: 6.00 Build 43363)  -->
<!DOCTYPE svg PUBLIC "-//W3C//DTD SVG 1.1//EN" "http://www.w3.org/Graphics/SVG/1.1/DTD/svg11.dtd">
<svg version="1.1" id="Layer_1" xmlns="http://www.w3.org/2000/svg" xmlns:xlink="http://www.w3.org/1999/xlink" x="0px" y="0px"
	  viewBox="0 0 40 40" enable-background="new 0 0 40 40" xml:space="preserve">
<g>
	<path d="M23.83,28.146c-0.414,0-0.75,0.337-0.75,0.75v5.25H8.287V5.854H23.08v5.25c0,0.414,0.336,0.75,0.75,0.75
		s0.75-0.336,0.75-0.75v-6c0-0.414-0.336-0.75-0.75-0.75H7.537c-0.414,0-0.75,0.336-0.75,0.75v29.793c0,0.415,0.336,0.75,0.75,0.75
		H23.83c0.414,0,0.75-0.335,0.75-0.75v-6C24.58,28.483,24.244,28.146,23.83,28.146z"/>
	<path d="M34.168,24.248l-2.48-8.688c-0.08-0.277-0.311-0.484-0.594-0.533c-0.285-0.05-0.572,0.069-0.738,0.304L29.307,16.8
		c-1.635-1.122-3.586-1.735-5.693-1.783c-0.02-0.001-0.037,0-0.057,0.001c-4.104,0.216-6.771,1.523-10.574,5.178
		c-0.258,0.248-0.305,0.642-0.115,0.942c0.191,0.302,0.568,0.426,0.902,0.3c1.627-0.619,3.34-0.946,4.955-0.946
		c1.795,0,4.295,0.403,6.336,2.252l-0.947,1.327c-0.162,0.229-0.186,0.529-0.057,0.779s0.387,0.407,0.668,0.407h8.738l0,0
		c0.416,0,0.75-0.336,0.75-0.75C34.213,24.416,34.197,24.329,34.168,24.248z M26.182,23.757l0.475-0.665
		c0.209-0.292,0.18-0.692-0.068-0.953c-1.961-2.059-4.68-3.147-7.863-3.147c-0.754,0-1.527,0.063-2.305,0.188
		c2.352-1.809,4.373-2.511,7.188-2.663c2.041,0.052,3.906,0.717,5.391,1.925c0.162,0.131,0.369,0.189,0.574,0.161
		c0.205-0.027,0.391-0.139,0.51-0.308l0.59-0.826l1.795,6.288H26.182z"/>
</g>
</svg>
